<svg width="19" height="11" viewBox="0 0 19 11" fill="none" xmlns="http://www.w3.org/2000/svg">
<path d="M1.55022 7.14656L3.90001 9.49635C3.90146 9.4978 3.90302 9.49914 3.90447 9.5006C3.90593 9.50205 3.90766 9.504 3.90933 9.50568C4.59504 10.1913 5.49904 10.6155 6.46463 10.7047C7.43022 10.7939 8.39654 10.5425 9.19628 9.99403C9.99602 10.5425 10.9623 10.7939 11.9279 10.7047C12.8935 10.6155 13.7975 10.1913 14.4832 9.50568L16.833 7.15594C17.5651 6.42365 17.9973 5.44432 18.0449 4.40994C18.0925 3.37555 17.7521 2.36065 17.0903 1.5642C16.4285 0.767815 15.4931 0.247239 14.4675 0.104614C13.4419 -0.0380104 12.4 0.207534 11.546 0.793167C10.8546 0.318998 10.0358 0.0651331 9.19745 0.0648539C8.35901 0.0646304 7.54018 0.318048 6.84844 0.791826C5.99549 0.202564 4.953 -0.0463877 3.92581 0.0937799C2.89862 0.234003 1.961 0.753182 1.29708 1.54946C0.633208 2.34573 0.29111 3.36147 0.337907 4.3971C0.38476 5.43277 0.817156 6.41347 1.55022 7.14656ZM12.822 1.96985C13.3524 1.71649 13.9554 1.65886 14.5243 1.80707C15.0931 1.95522 15.5913 2.29978 15.9307 2.77975C16.2701 3.25973 16.4289 3.84419 16.3791 4.42993C16.3292 5.01568 16.0739 5.56495 15.6583 5.98066L13.3086 8.33045C12.9438 8.69468 12.4753 8.93709 11.9673 9.02437C11.4593 9.11165 10.9367 9.03952 10.4714 8.81791L12.1335 7.15594C12.7709 6.52184 13.1835 5.69674 13.3086 4.80638C13.3361 4.6117 13.35 4.41536 13.3501 4.21873C13.3518 3.44144 13.1338 2.67951 12.7213 2.02067C12.7546 2.00291 12.7881 1.98604 12.822 1.97002L12.822 1.96985ZM7.43396 2.45625C7.90188 1.99141 8.53498 1.73106 9.19455 1.73212C9.85412 1.73324 10.4863 1.99576 10.9527 2.46211C11.4191 2.92852 11.6816 3.56073 11.6827 4.2203C11.6838 4.87987 11.4234 5.51294 10.9586 5.98088L9.19628 7.7432L7.43396 5.98088C6.96739 5.51313 6.70537 4.87942 6.70537 4.21873C6.70537 3.5581 6.96739 2.92439 7.43396 2.45664L7.43396 2.45625ZM2.72511 2.44692C3.09156 2.08142 3.56254 1.8389 4.0729 1.75284C4.58326 1.66679 5.10774 1.7415 5.57375 1.96667C5.60726 1.98281 5.64043 1.99973 5.67321 2.01743C5.25947 2.677 5.04078 3.44016 5.04246 4.21873C5.04263 4.41536 5.05648 4.6117 5.08401 4.80637C5.20898 5.69674 5.62167 6.52184 6.25907 7.15594L7.91104 8.80786L7.92036 8.81718C7.45524 9.0387 6.93293 9.11087 6.42515 9.0238C5.91736 8.93672 5.449 8.69467 5.08423 8.33084C5.08255 8.32916 5.08099 8.32738 5.07937 8.3257C5.07775 8.32403 5.07635 8.32291 5.0749 8.32146L2.73611 5.98267L2.72494 5.9715C2.25759 5.50409 1.99501 4.87015 1.99501 4.20918C1.99501 3.54822 2.25759 2.91428 2.72495 2.44687L2.72511 2.44692Z" fill="white"/>
</svg>
