<svg width="85" height="22" viewBox="0 0 85 22" fill="none" xmlns="http://www.w3.org/2000/svg">
<g clip-path="url(#clip0_261_374)">
<path d="M27.3135 17.1585L28.3549 14.7396C29.4804 15.5795 30.9754 16.0162 32.4536 16.0162C33.5455 16.0162 34.2342 15.5963 34.2342 14.9579C34.2174 13.1774 27.6998 14.5716 27.6494 10.1033C27.6326 7.83563 29.6484 6.08865 32.504 6.08865C34.2006 6.08865 35.8972 6.5086 37.1067 7.46608L36.1324 9.93537C35.0237 9.22986 33.6463 8.72592 32.336 8.72592C31.4458 8.72592 30.8578 9.14587 30.8578 9.6834C30.8746 11.4304 37.4426 10.4729 37.5098 14.7396C37.5098 17.0577 35.5444 18.6871 32.7224 18.6871C30.6563 18.6871 28.7581 18.1999 27.3135 17.1585ZM67.2757 13.8661C66.7549 14.7732 65.7807 15.3947 64.6552 15.3947C62.9922 15.3947 61.6484 14.0509 61.6484 12.3879C61.6484 10.7249 62.9922 9.38104 64.6552 9.38104C65.7807 9.38104 66.7549 10.0026 67.2757 10.9096L70.1481 9.31385C69.0731 7.39889 67.0069 6.08865 64.6552 6.08865C61.178 6.08865 58.356 8.9107 58.356 12.3879C58.356 15.865 61.178 18.6871 64.6552 18.6871C67.0237 18.6871 69.0731 17.3936 70.1481 15.4619L67.2757 13.8661ZM38.9544 0.864502H42.5492V18.4519H38.9544V0.864502ZM71.5591 0.864502V18.4519H75.1539V13.1774L79.4206 18.4519H84.0232L78.5975 12.1863L83.62 6.34062H79.219L75.1539 11.1952V0.864502H71.5591ZM53.2326 13.8997C52.7119 14.7564 51.6368 15.3947 50.4274 15.3947C48.7644 15.3947 47.4206 14.0509 47.4206 12.3879C47.4206 10.7249 48.7644 9.38104 50.4274 9.38104C51.6368 9.38104 52.7119 10.053 53.2326 10.9264V13.8997ZM53.2326 6.34062V7.76844C52.6447 6.77736 51.1833 6.08865 49.6547 6.08865C46.4967 6.08865 44.0106 8.8771 44.0106 12.3711C44.0106 15.865 46.4967 18.6871 49.6547 18.6871C51.1833 18.6871 52.6447 17.9984 53.2326 17.0073V18.4351H56.8274V6.34062H53.2326Z" fill="#999999"/>
<path d="M5.08992 13.8828C5.08992 15.1091 4.09884 16.1002 2.8726 16.1002C1.64635 16.1002 0.655273 15.1091 0.655273 13.8828C0.655273 12.6566 1.64635 11.6655 2.8726 11.6655H5.08992V13.8828ZM6.19858 13.8828C6.19858 12.6566 7.18966 11.6655 8.4159 11.6655C9.64215 11.6655 10.6332 12.6566 10.6332 13.8828V19.4262C10.6332 20.6524 9.64215 21.6435 8.4159 21.6435C7.18966 21.6435 6.19858 20.6524 6.19858 19.4262V13.8828Z" fill="#999999"/>
<path d="M8.41586 4.97993C7.18961 4.97993 6.19853 3.98886 6.19853 2.76261C6.19853 1.53636 7.18961 0.545288 8.41586 0.545288C9.6421 0.545288 10.6332 1.53636 10.6332 2.76261V4.97993H8.41586ZM8.41586 6.10539C9.6421 6.10539 10.6332 7.09647 10.6332 8.32272C10.6332 9.54896 9.6421 10.54 8.41586 10.54H2.85575C1.6295 10.54 0.638428 9.54896 0.638428 8.32272C0.638428 7.09647 1.6295 6.10539 2.85575 6.10539H8.41586Z" fill="#999999"/>
<path d="M17.3019 8.32272C17.3019 7.09647 18.2929 6.10539 19.5192 6.10539C20.7454 6.10539 21.7365 7.09647 21.7365 8.32272C21.7365 9.54896 20.7454 10.54 19.5192 10.54H17.3019V8.32272ZM16.1932 8.32272C16.1932 9.54896 15.2021 10.54 13.9759 10.54C12.7496 10.54 11.7585 9.54896 11.7585 8.32272V2.76261C11.7585 1.53636 12.7496 0.545288 13.9759 0.545288C15.2021 0.545288 16.1932 1.53636 16.1932 2.76261V8.32272Z" fill="#999999"/>
<path d="M13.9759 17.2088C15.2021 17.2088 16.1932 18.1999 16.1932 19.4262C16.1932 20.6524 15.2021 21.6435 13.9759 21.6435C12.7496 21.6435 11.7585 20.6524 11.7585 19.4262V17.2088H13.9759ZM13.9759 16.1002C12.7496 16.1002 11.7585 15.1091 11.7585 13.8828C11.7585 12.6566 12.7496 11.6655 13.9759 11.6655H19.536C20.7622 11.6655 21.7533 12.6566 21.7533 13.8828C21.7533 15.1091 20.7622 16.1002 19.536 16.1002H13.9759Z" fill="#999999"/>
</g>
<defs>
<clipPath id="clip0_261_374">
<rect width="83.6535" height="21.3333" fill="white" transform="translate(0.520996 0.44458)"/>
</clipPath>
</defs>
</svg>
