<svg width="32" height="32" viewBox="0 0 32 32" fill="none" xmlns="http://www.w3.org/2000/svg">
<circle cx="16" cy="16" r="16" fill="#C7EEFF"/>
<path d="M15.8906 22.1953C18.3828 22.1953 20.1016 20.8203 20.1016 18.8594V18.8438C20.1016 17.2812 19 16.2969 17.3359 16.1406V16.1016C18.6875 15.8203 19.7031 14.8906 19.7031 13.4922V13.4766C19.7031 11.7266 18.1953 10.5312 15.8672 10.5312C13.5938 10.5312 12.0547 11.7969 11.8906 13.7031L11.8828 13.7969H13.7578L13.7656 13.7188C13.8672 12.75 14.6797 12.1328 15.8672 12.1328C17.0781 12.1328 17.7656 12.7266 17.7656 13.7422V13.7578C17.7656 14.7422 16.9375 15.4453 15.6953 15.4453H14.4062V16.9453H15.7422C17.1797 16.9453 18.0547 17.6016 18.0547 18.7891V18.8047C18.0547 19.8281 17.1875 20.5469 15.8828 20.5469C14.5625 20.5469 13.6875 19.8828 13.5781 18.9688L13.5703 18.8828H11.6406L11.6484 18.9766C11.8047 20.8672 13.4141 22.1953 15.8906 22.1953Z" fill="black"/>
</svg>
