<svg width="32" height="32" viewBox="0 0 32 32" fill="none" xmlns="http://www.w3.org/2000/svg">
<circle cx="16" cy="16" r="16" fill="#C7EEFF"/>
<path d="M16 22.1953C18.4922 22.1953 20.2344 20.6016 20.2344 18.2812V18.2656C20.2344 16.125 18.6875 14.5703 16.5391 14.5703C15.4062 14.5703 14.4766 15.0156 13.9844 15.7734H13.9453L14.2578 12.375H19.5703V10.7266H12.6484L12.1094 17.2812H13.8672C14 17.0312 14.1875 16.8125 14.3984 16.6406C14.8281 16.2812 15.3828 16.0859 16.0234 16.0859C17.3438 16.0859 18.2891 17.0078 18.2891 18.2969V18.3125C18.2891 19.6328 17.3594 20.5547 16.0156 20.5547C14.8281 20.5547 13.9688 19.8281 13.8047 18.8828L13.7969 18.8281H11.9062L11.9141 18.9297C12.0625 20.7969 13.6562 22.1953 16 22.1953Z" fill="black"/>
</svg>
